2026-04-20 10:09:24 -> Iniciando Porton
ffmpeg version 7.1.3-0+deb13u1 Copyright (c) 2000-2025 the FFmpeg developers
  built with gcc 14 (Debian 14.2.0-19)
  configuration: --prefix=/usr --extra-version=0+deb13u1 --toolchain=hardened --libdir=/usr/lib/x86_64-linux-gnu --incdir=/usr/include/x86_64-linux-gnu --arch=amd64 --enable-gpl --disable-stripping --disable-libmfx --disable-omx --enable-gnutls --enable-libaom --enable-libass --enable-libbs2b --enable-libcdio --enable-libcodec2 --enable-libdav1d --enable-libflite --enable-libfontconfig --enable-libfreetype --enable-libfribidi --enable-libglslang --enable-libgme --enable-libgsm --enable-libharfbuzz --enable-libmp3lame --enable-libmysofa --enable-libopenjpeg --enable-libopenmpt --enable-libopus --enable-librubberband --enable-libshine --enable-libsnappy --enable-libsoxr --enable-libspeex --enable-libtheora --enable-libtwolame --enable-libvidstab --enable-libvorbis --enable-libvpx --enable-libwebp --enable-libx265 --enable-libxml2 --enable-libxvid --enable-libzimg --enable-openal --enable-opencl --enable-opengl --disable-sndio --enable-libvpl --enable-libdc1394 --enable-libdrm --enable-libiec61883 --enable-chromaprint --enable-frei0r --enable-ladspa --enable-libbluray --enable-libcaca --enable-libdvdnav --enable-libdvdread --enable-libjack --enable-libpulse --enable-librabbitmq --enable-librist --enable-libsrt --enable-libssh --enable-libsvtav1 --enable-libx264 --enable-libzmq --enable-libzvbi --enable-lv2 --enable-sdl2 --enable-libplacebo --enable-librav1e --enable-pocketsphinx --enable-librsvg --enable-libjxl --enable-shared
  libavutil      59. 39.100 / 59. 39.100
  libavcodec     61. 19.101 / 61. 19.101
  libavformat    61.  7.100 / 61.  7.100
  libavdevice    61.  3.100 / 61.  3.100
  libavfilter    10.  4.100 / 10.  4.100
  libswscale      8.  3.100 /  8.  3.100
  libswresample   5.  3.100 /  5.  3.100
  libpostproc    58.  3.100 / 58.  3.100
Input #0, rtsp, from 'rtsp://visor:R0B10T3C2025@192.168.1.215:554/Streaming/Channels/101':
  Metadata:
    title           : Media Presentation
  Duration: N/A, start: 0.000000, bitrate: N/A
  Stream #0:0: Video: h264 (Main), yuvj420p(pc, bt709, progressive), 2560x1440, 30 fps, 30 tbr, 90k tbn
  Stream #0:1: Audio: pcm_mulaw, 8000 Hz, mono, s16, 64 kb/s
Stream mapping:
  Stream #0:0 -> #0:0 (copy)
  Stream #0:1 -> #0:1 (pcm_mulaw (native) -> opus (libopus))
Press [q] to stop, [?] for help
Output #0, rtsp, to 'rtsp://136.119.96.176:8554/Porton':
  Metadata:
    title           : Media Presentation
    encoder         : Lavf61.7.100
  Stream #0:0: Video: h264 (Main), yuvj420p(pc, bt709, progressive), 2560x1440, q=2-31, 30 fps, 30 tbr, 90k tbn
  Stream #0:1: Audio: opus, 48000 Hz, stereo, s16, 96 kb/s
      Metadata:
        encoder         : Lavc61.19.101 libopus
frame=   27 fps= 27 q=-1.0 size=N/A time=00:00:00.23 bitrate=N/A speed=0.233x    frame=   73 fps= 49 q=-1.0 size=N/A time=00:00:02.53 bitrate=N/A speed=1.69x    frame=   87 fps= 43 q=-1.0 size=N/A time=00:00:03.01 bitrate=N/A speed=1.51x    frame=  103 fps= 41 q=-1.0 size=N/A time=00:00:03.53 bitrate=N/A speed=1.41x    frame=  117 fps= 39 q=-1.0 size=N/A time=00:00:04.03 bitrate=N/A speed=1.34x    frame=  133 fps= 38 q=-1.0 size=N/A time=00:00:04.53 bitrate=N/A speed=1.29x    frame=  147 fps= 37 q=-1.0 size=N/A time=00:00:05.01 bitrate=N/A speed=1.25x    frame=  163 fps= 36 q=-1.0 size=N/A time=00:00:05.53 bitrate=N/A speed=1.23x    frame=  177 fps= 35 q=-1.0 size=N/A time=00:00:06.01 bitrate=N/A speed= 1.2x    frame=  193 fps= 35 q=-1.0 size=N/A time=00:00:06.53 bitrate=N/A speed=1.19x    frame=  207 fps= 34 q=-1.0 size=N/A time=00:00:07.03 bitrate=N/A speed=1.17x    frame=  222 fps= 34 q=-1.0 size=N/A time=00:00:07.53 bitrate=N/A speed=1.16x    frame=  237 fps= 34 q=-1.0 size=N/A time=00:00:08.03 bitrate=N/A speed=1.15x    frame=  253 fps= 34 q=-1.0 size=N/A time=00:00:08.53 bitrate=N/A speed=1.14x    frame=  267 fps= 33 q=-1.0 size=N/A time=00:00:09.03 bitrate=N/A speed=1.13x    frame=  283 fps= 33 q=-1.0 size=N/A time=00:00:09.53 bitrate=N/A speed=1.12x    frame=  297 fps= 33 q=-1.0 size=N/A time=00:00:10.01 bitrate=N/A speed=1.11x    frame=  313 fps= 33 q=-1.0 size=N/A time=00:00:10.53 bitrate=N/A speed=1.11x    frame=  328 fps= 33 q=-1.0 size=N/A time=00:00:11.05 bitrate=N/A speed= 1.1x    frame=  342 fps= 33 q=-1.0 size=N/A time=00:00:11.53 bitrate=N/A speed= 1.1x    frame=  358 fps= 33 q=-1.0 size=N/A time=00:00:12.05 bitrate=N/A speed= 1.1x    frame=  372 fps= 32 q=-1.0 size=N/A time=00:00:12.53 bitrate=N/A speed=1.09x    frame=  388 fps= 32 q=-1.0 size=N/A time=00:00:13.05 bitrate=N/A speed=1.09x    frame=  403 fps= 32 q=-1.0 size=N/A time=00:00:13.53 bitrate=N/A speed=1.08x    frame=  418 fps= 32 q=-1.0 size=N/A time=00:00:14.05 bitrate=N/A speed=1.08x    frame=  433 fps= 32 q=-1.0 size=N/A time=00:00:14.53 bitrate=N/A speed=1.08x    frame=  447 fps= 32 q=-1.0 size=N/A time=00:00:15.01 bitrate=N/A speed=1.07x    frame=  463 fps= 32 q=-1.0 size=N/A time=00:00:15.53 bitrate=N/A speed=1.07x    frame=  478 fps= 32 q=-1.0 size=N/A time=00:00:16.05 bitrate=N/A speed=1.07x    frame=  493 fps= 32 q=-1.0 size=N/A time=00:00:16.53 bitrate=N/A speed=1.07x    frame=  508 fps= 32 q=-1.0 size=N/A time=00:00:17.05 bitrate=N/A speed=1.07x    frame=  523 fps= 32 q=-1.0 size=N/A time=00:00:17.53 bitrate=N/A speed=1.06x    frame=  538 fps= 32 q=-1.0 size=N/A time=00:00:18.05 bitrate=N/A speed=1.06x    frame=  553 fps= 32 q=-1.0 size=N/A time=00:00:18.53 bitrate=N/A speed=1.06x    frame=  568 fps= 32 q=-1.0 size=N/A time=00:00:19.05 bitrate=N/A speed=1.06x    frame=  583 fps= 32 q=-1.0 size=N/A time=00:00:19.53 bitrate=N/A speed=1.06x    frame=  597 fps= 31 q=-1.0 size=N/A time=00:00:20.01 bitrate=N/A speed=1.05x    frame=  613 fps= 31 q=-1.0 size=N/A time=00:00:20.53 bitrate=N/A speed=1.05x    frame=  627 fps= 31 q=-1.0 size=N/A time=00:00:21.03 bitrate=N/A speed=1.05x    frame=  643 fps= 31 q=-1.0 size=N/A time=00:00:21.53 bitrate=N/A speed=1.05x    frame=  657 fps= 31 q=-1.0 size=N/A time=00:00:22.03 bitrate=N/A speed=1.05x    frame=  673 fps= 31 q=-1.0 size=N/A time=00:00:22.53 bitrate=N/A speed=1.05x    frame=  687 fps= 31 q=-1.0 size=N/A time=00:00:23.03 bitrate=N/A speed=1.05x    frame=  703 fps= 31 q=-1.0 size=N/A time=00:00:23.53 bitrate=N/A speed=1.05x    frame=  718 fps= 31 q=-1.0 size=N/A time=00:00:24.05 bitrate=N/A speed=1.05x    frame=  733 fps= 31 q=-1.0 size=N/A time=00:00:24.53 bitrate=N/A speed=1.04x    frame=  747 fps= 31 q=-1.0 size=N/A time=00:00:25.01 bitrate=N/A speed=1.04x    frame=  762 fps= 31 q=-1.0 size=N/A time=00:00:25.53 bitrate=N/A speed=1.04x    frame=  778 fps= 31 q=-1.0 size=N/A time=00:00:26.05 bitrate=N/A speed=1.04x    frame=  793 fps= 31 q=-1.0 size=N/A time=00:00:26.53 bitrate=N/A speed=1.04x    frame=  807 fps= 31 q=-1.0 size=N/A time=00:00:27.03 bitrate=N/A speed=1.04x    frame=  823 fps= 31 q=-1.0 size=N/A time=00:00:27.53 bitrate=N/A speed=1.04x    frame=  838 fps= 31 q=-1.0 size=N/A time=00:00:28.05 bitrate=N/A speed=1.04x    frame=  853 fps= 31 q=-1.0 size=N/A time=00:00:28.53 bitrate=N/A speed=1.04x    frame=  868 fps= 31 q=-1.0 size=N/A time=00:00:29.05 bitrate=N/A speed=1.04x    frame=  883 fps= 31 q=-1.0 size=N/A time=00:00:29.53 bitrate=N/A speed=1.04x    frame=  897 fps= 31 q=-1.0 size=N/A time=00:00:30.01 bitrate=N/A speed=1.03x    frame=  913 fps= 31 q=-1.0 size=N/A time=00:00:30.53 bitrate=N/A speed=1.03x    frame=  928 fps= 31 q=-1.0 size=N/A time=00:00:31.05 bitrate=N/A speed=1.03x    frame=  943 fps= 31 q=-1.0 size=N/A time=00:00:31.53 bitrate=N/A speed=1.03x    frame=  958 fps= 31 q=-1.0 size=N/A time=00:00:32.05 bitrate=N/A speed=1.03x    frame=  973 fps= 31 q=-1.0 size=N/A time=00:00:32.56 bitrate=N/A speed=1.03x    frame=  988 fps= 31 q=-1.0 size=N/A time=00:00:33.05 bitrate=N/A speed=1.03x    frame= 1003 fps= 31 q=-1.0 size=N/A time=00:00:33.53 bitrate=N/A speed=1.03x    frame= 1018 fps= 31 q=-1.0 size=N/A time=00:00:34.05 bitrate=N/A speed=1.03x    frame= 1033 fps= 31 q=-1.0 size=N/A time=00:00:34.53 bitrate=N/A speed=1.03x    frame= 1047 fps= 31 q=-1.0 size=N/A time=00:00:35.01 bitrate=N/A speed=1.03x    frame= 1063 fps= 31 q=-1.0 size=N/A time=00:00:35.53 bitrate=N/A speed=1.03x    frame= 1078 fps= 31 q=-1.0 size=N/A time=00:00:36.05 bitrate=N/A speed=1.03x    frame= 1093 fps= 31 q=-1.0 size=N/A time=00:00:36.53 bitrate=N/A speed=1.03x    frame= 1108 fps= 31 q=-1.0 size=N/A time=00:00:37.05 bitrate=N/A speed=1.03x    frame= 1123 fps= 31 q=-1.0 size=N/A time=00:00:37.53 bitrate=N/A speed=1.03x    frame= 1138 fps= 31 q=-1.0 size=N/A time=00:00:38.05 bitrate=N/A speed=1.03x    frame= 1153 fps= 31 q=-1.0 size=N/A time=00:00:38.53 bitrate=N/A speed=1.03x    frame= 1168 fps= 31 q=-1.0 size=N/A time=00:00:39.05 bitrate=N/A speed=1.03x    frame= 1183 fps= 31 q=-1.0 size=N/A time=00:00:39.53 bitrate=N/A speed=1.03x    frame= 1197 fps= 31 q=-1.0 size=N/A time=00:00:40.01 bitrate=N/A speed=1.03x    frame= 1213 fps= 31 q=-1.0 size=N/A time=00:00:40.53 bitrate=N/A speed=1.03x    frame= 1228 fps= 31 q=-1.0 size=N/A time=00:00:41.05 bitrate=N/A speed=1.03x    frame= 1243 fps= 31 q=-1.0 size=N/A time=00:00:41.53 bitrate=N/A speed=1.03x    frame= 1258 fps= 31 q=-1.0 size=N/A time=00:00:42.05 bitrate=N/A speed=1.03x    frame= 1273 fps= 31 q=-1.0 size=N/A time=00:00:42.53 bitrate=N/A speed=1.02x    frame= 1288 fps= 31 q=-1.0 size=N/A time=00:00:43.05 bitrate=N/A speed=1.02x    frame= 1303 fps= 31 q=-1.0 size=N/A time=00:00:43.53 bitrate=N/A speed=1.02x    frame= 1318 fps= 31 q=-1.0 size=N/A time=00:00:44.05 bitrate=N/A speed=1.02x    frame= 1333 fps= 31 q=-1.0 size=N/A time=00:00:44.56 bitrate=N/A speed=1.02x    frame= 1347 fps= 31 q=-1.0 size=N/A time=00:00:45.01 bitrate=N/A speed=1.02x    frame= 1363 fps= 31 q=-1.0 size=N/A time=00:00:45.56 bitrate=N/A speed=1.02x    frame= 1378 fps= 31 q=-1.0 size=N/A time=00:00:46.05 bitrate=N/A speed=1.02x    frame= 1393 fps= 31 q=-1.0 size=N/A time=00:00:46.53 bitrate=N/A speed=1.02x    frame= 1408 fps= 31 q=-1.0 size=N/A time=00:00:47.05 bitrate=N/A speed=1.02x    frame= 1423 fps= 31 q=-1.0 size=N/A time=00:00:47.56 bitrate=N/A speed=1.02x    frame= 1438 fps= 31 q=-1.0 size=N/A time=00:00:48.05 bitrate=N/A speed=1.02x    frame= 1453 fps= 31 q=-1.0 size=N/A time=00:00:48.56 bitrate=N/A speed=1.02x    frame= 1468 fps= 31 q=-1.0 size=N/A time=00:00:49.05 bitrate=N/A speed=1.02x    frame= 1483 fps= 31 q=-1.0 size=N/A time=00:00:49.56 bitrate=N/A speed=1.02x    frame= 1497 fps= 31 q=-1.0 size=N/A time=00:00:50.01 bitrate=N/A speed=1.02x    frame= 1513 fps= 31 q=-1.0 size=N/A time=00:00:50.56 bitrate=N/A speed=1.02x    frame= 1528 fps= 31 q=-1.0 size=N/A time=00:00:51.05 bitrate=N/A speed=1.02x    frame= 1543 fps= 31 q=-1.0 size=N/A time=00:00:51.56 bitrate=N/A speed=1.02x    frame= 1558 fps= 31 q=-1.0 size=N/A time=00:00:52.05 bitrate=N/A speed=1.02x    frame= 1573 fps= 31 q=-1.0 size=N/A time=00:00:52.56 bitrate=N/A speed=1.02x    frame= 1588 fps= 31 q=-1.0 size=N/A time=00:00:53.05 bitrate=N/A speed=1.02x    frame= 1603 fps= 31 q=-1.0 size=N/A time=00:00:53.56 bitrate=N/A speed=1.02x    frame= 1618 fps= 31 q=-1.0 size=N/A time=00:00:54.05 bitrate=N/A speed=1.02x    frame= 1633 fps= 31 q=-1.0 size=N/A time=00:00:54.56 bitrate=N/A speed=1.02x    frame= 1648 fps= 31 q=-1.0 size=N/A time=00:00:55.05 bitrate=N/A speed=1.02x    frame= 1663 fps= 31 q=-1.0 size=N/A time=00:00:55.53 bitrate=N/A speed=1.02x    frame= 1678 fps= 30 q=-1.0 size=N/A time=00:00:56.05 bitrate=N/A speed=1.02x    frame= 1693 fps= 30 q=-1.0 size=N/A time=00:00:56.53 bitrate=N/A speed=1.02x    frame= 1708 fps= 30 q=-1.0 size=N/A time=00:00:57.05 bitrate=N/A speed=1.02x    frame= 1723 fps= 30 q=-1.0 size=N/A time=00:00:57.56 bitrate=N/A speed=1.02x    frame= 1738 fps= 30 q=-1.0 size=N/A time=00:00:58.05 bitrate=N/A speed=1.02x    frame= 1753 fps= 30 q=-1.0 size=N/A time=00:00:58.56 bitrate=N/A speed=1.02x    frame= 1768 fps= 30 q=-1.0 size=N/A time=00:00:59.05 bitrate=N/A speed=1.02x    frame= 1783 fps= 30 q=-1.0 size=N/A time=00:00:59.56 bitrate=N/A speed=1.02x    frame= 1798 fps= 30 q=-1.0 size=N/A time=00:01:00.05 bitrate=N/A speed=1.02x    frame= 1813 fps= 30 q=-1.0 size=N/A time=00:01:00.56 bitrate=N/A speed=1.02x    frame= 1828 fps= 30 q=-1.0 size=N/A time=00:01:01.05 bitrate=N/A speed=1.02x    frame= 1843 fps= 30 q=-1.0 size=N/A time=00:01:01.56 bitrate=N/A speed=1.02x    frame= 1858 fps= 30 q=-1.0 size=N/A time=00:01:02.05 bitrate=N/A speed=1.02x    frame= 1873 fps= 30 q=-1.0 size=N/A time=00:01:02.56 bitrate=N/A speed=1.02x    frame= 1888 fps= 30 q=-1.0 size=N/A time=00:01:03.05 bitrate=N/A speed=1.02x    frame= 1903 fps= 30 q=-1.0 size=N/A time=00:01:03.56 bitrate=N/A speed=1.02x    frame= 1918 fps= 30 q=-1.0 size=N/A time=00:01:04.05 bitrate=N/A speed=1.02x    frame= 1933 fps= 30 q=-1.0 size=N/A time=00:01:04.56 bitrate=N/A speed=1.02x    frame= 1947 fps= 30 q=-1.0 size=N/A time=00:01:05.01 bitrate=N/A speed=1.02x    frame= 1963 fps= 30 q=-1.0 size=N/A time=00:01:05.53 bitrate=N/A speed=1.02x    frame= 1978 fps= 30 q=-1.0 size=N/A time=00:01:06.05 bitrate=N/A speed=1.02x    frame= 1993 fps= 30 q=-1.0 size=N/A time=00:01:06.56 bitrate=N/A speed=1.02x    frame= 2008 fps= 30 q=-1.0 size=N/A time=00:01:07.05 bitrate=N/A speed=1.02x    frame= 2023 fps= 30 q=-1.0 size=N/A time=00:01:07.56 bitrate=N/A speed=1.02x    frame= 2038 fps= 30 q=-1.0 size=N/A time=00:01:08.05 bitrate=N/A speed=1.02x    frame= 2053 fps= 30 q=-1.0 size=N/A time=00:01:08.56 bitrate=N/A speed=1.02x    frame= 2068 fps= 30 q=-1.0 size=N/A time=00:01:09.05 bitrate=N/A speed=1.02x    frame= 2083 fps= 30 q=-1.0 size=N/A time=00:01:09.56 bitrate=N/A speed=1.02x    frame= 2097 fps= 30 q=-1.0 size=N/A time=00:01:10.01 bitrate=N/A speed=1.01x    frame= 2113 fps= 30 q=-1.0 size=N/A time=00:01:10.53 bitrate=N/A speed=1.01x    frame= 2128 fps= 30 q=-1.0 size=N/A time=00:01:11.05 bitrate=N/A speed=1.01x    frame= 2143 fps= 30 q=-1.0 size=N/A time=00:01:11.56 bitrate=N/A speed=1.01x    frame= 2158 fps= 30 q=-1.0 size=N/A time=00:01:12.05 bitrate=N/A speed=1.01x    frame= 2173 fps= 30 q=-1.0 size=N/A time=00:01:12.56 bitrate=N/A speed=1.01x    frame= 2188 fps= 30 q=-1.0 size=N/A time=00:01:13.05 bitrate=N/A speed=1.01x    frame= 2203 fps= 30 q=-1.0 size=N/A time=00:01:13.56 bitrate=N/A speed=1.01x    frame= 2218 fps= 30 q=-1.0 size=N/A time=00:01:14.05 bitrate=N/A speed=1.01x    frame= 2233 fps= 30 q=-1.0 size=N/A time=00:01:14.56 bitrate=N/A speed=1.01x    frame= 2247 fps= 30 q=-1.0 size=N/A time=00:01:15.01 bitrate=N/A speed=1.01x    frame= 2263 fps= 30 q=-1.0 size=N/A time=00:01:15.56 bitrate=N/A speed=1.01x    frame= 2278 fps= 30 q=-1.0 size=N/A time=00:01:16.05 bitrate=N/A speed=1.01x    frame= 2293 fps= 30 q=-1.0 size=N/A time=00:01:16.56 bitrate=N/A speed=1.01x    frame= 2308 fps= 30 q=-1.0 size=N/A time=00:01:17.05 bitrate=N/A speed=1.01x    frame= 2323 fps= 30 q=-1.0 size=N/A time=00:01:17.56 bitrate=N/A speed=1.01x    frame= 2339 fps= 30 q=-1.0 size=N/A time=00:01:18.05 bitrate=N/A speed=1.01x    frame= 2353 fps= 30 q=-1.0 size=N/A time=00:01:18.56 bitrate=N/A speed=1.01x    frame= 2368 fps= 30 q=-1.0 size=N/A time=00:01:19.05 bitrate=N/A speed=1.01x    frame= 2383 fps= 30 q=-1.0 size=N/A time=00:01:19.56 bitrate=N/A speed=1.01x    frame= 2397 fps= 30 q=-1.0 size=N/A time=00:01:20.01 bitrate=N/A speed=1.01x    frame= 2413 fps= 30 q=-1.0 size=N/A time=00:01:20.56 bitrate=N/A speed=1.01x    frame= 2429 fps= 30 q=-1.0 size=N/A time=00:01:21.05 bitrate=N/A speed=1.01x    frame= 2443 fps= 30 q=-1.0 size=N/A time=00:01:21.56 bitrate=N/A speed=1.01x    frame= 2458 fps= 30 q=-1.0 size=N/A time=00:01:22.05 bitrate=N/A speed=1.01x    frame= 2473 fps= 30 q=-1.0 size=N/A time=00:01:22.56 bitrate=N/A speed=1.01x    frame= 2488 fps= 30 q=-1.0 size=N/A time=00:01:23.05 bitrate=N/A speed=1.01x    frame= 2503 fps= 30 q=-1.0 size=N/A time=00:01:23.56 bitrate=N/A speed=1.01x    frame= 2518 fps= 30 q=-1.0 size=N/A time=00:01:24.05 bitrate=N/A speed=1.01x    frame= 2533 fps= 30 q=-1.0 size=N/A time=00:01:24.56 bitrate=N/A speed=1.01x    frame= 2547 fps= 30 q=-1.0 size=N/A time=00:01:25.01 bitrate=N/A speed=1.01x    frame= 2563 fps= 30 q=-1.0 size=N/A time=00:01:25.56 bitrate=N/A speed=1.01x    frame= 2578 fps= 30 q=-1.0 size=N/A time=00:01:26.05 bitrate=N/A speed=1.01x    frame= 2593 fps= 30 q=-1.0 size=N/A time=00:01:26.56 bitrate=N/A speed=1.01x    frame= 2608 fps= 30 q=-1.0 size=N/A time=00:01:27.05 bitrate=N/A speed=1.01x    frame= 2623 fps= 30 q=-1.0 size=N/A time=00:01:27.56 bitrate=N/A speed=1.01x    frame= 2638 fps= 30 q=-1.0 size=N/A time=00:01:28.05 bitrate=N/A speed=1.01x    frame= 2653 fps= 30 q=-1.0 size=N/A time=00:01:28.56 bitrate=N/A speed=1.01x    frame= 2668 fps= 30 q=-1.0 size=N/A time=00:01:29.05 bitrate=N/A speed=1.01x    frame= 2683 fps= 30 q=-1.0 size=N/A time=00:01:29.56 bitrate=N/A speed=1.01x    frame= 2697 fps= 30 q=-1.0 size=N/A time=00:01:30.01 bitrate=N/A speed=1.01x    frame= 2713 fps= 30 q=-1.0 size=N/A time=00:01:30.56 bitrate=N/A speed=1.01x    frame= 2728 fps= 30 q=-1.0 size=N/A time=00:01:31.05 bitrate=N/A speed=1.01x    frame= 2743 fps= 30 q=-1.0 size=N/A time=00:01:31.56 bitrate=N/A speed=1.01x    frame= 2758 fps= 30 q=-1.0 size=N/A time=00:01:32.05 bitrate=N/A speed=1.01x    frame= 2773 fps= 30 q=-1.0 size=N/A time=00:01:32.53 bitrate=N/A speed=1.01x    frame= 2789 fps= 30 q=-1.0 size=N/A time=00:01:33.05 bitrate=N/A speed=1.01x    frame= 2803 fps= 30 q=-1.0 size=N/A time=00:01:33.56 bitrate=N/A speed=1.01x    frame= 2818 fps= 30 q=-1.0 size=N/A time=00:01:34.05 bitrate=N/A speed=1.01x    frame= 2833 fps= 30 q=-1.0 size=N/A time=00:01:34.56 bitrate=N/A speed=1.01x    frame= 2848 fps= 30 q=-1.0 size=N/A time=00:01:35.05 bitrate=N/A speed=1.01x    frame= 2863 fps= 30 q=-1.0 size=N/A time=00:01:35.56 bitrate=N/A speed=1.01x    frame= 2878 fps= 30 q=-1.0 size=N/A time=00:01:36.05 bitrate=N/A speed=1.01x    frame= 2893 fps= 30 q=-1.0 size=N/A time=00:01:36.56 bitrate=N/A speed=1.01x    frame= 2908 fps= 30 q=-1.0 size=N/A time=00:01:37.05 bitrate=N/A speed=1.01x    frame= 2924 fps= 30 q=-1.0 size=N/A time=00:01:37.57 bitrate=N/A speed=1.01x    frame= 2939 fps= 30 q=-1.0 size=N/A time=00:01:38.05 bitrate=N/A speed=1.01x    frame= 2954 fps= 30 q=-1.0 size=N/A time=00:01:38.57 bitrate=N/A speed=1.01x    frame= 2969 fps= 30 q=-1.0 size=N/A time=00:01:39.05 bitrate=N/A speed=1.01x    frame= 2983 fps= 30 q=-1.0 size=N/A time=00:01:39.56 bitrate=N/A speed=1.01x    frame= 2997 fps= 30 q=-1.0 size=N/A time=00:01:40.01 bitrate=N/A speed=1.01x    frame= 3013 fps= 30 q=-1.0 size=N/A time=00:01:40.56 bitrate=N/A speed=1.01x    frame= 3029 fps= 30 q=-1.0 size=N/A time=00:01:41.05 bitrate=N/A speed=1.01x    frame= 3043 fps= 30 q=-1.0 size=N/A time=00:01:41.56 bitrate=N/A speed=1.01x    frame= 3059 fps= 30 q=-1.0 size=N/A time=00:01:42.05 bitrate=N/A speed=1.01x    frame= 3074 fps= 30 q=-1.0 size=N/A time=00:01:42.57 bitrate=N/A speed=1.01x    frame= 3089 fps= 30 q=-1.0 size=N/A time=00:01:43.05 bitrate=N/A speed=1.01x    frame= 3103 fps= 30 q=-1.0 size=N/A time=00:01:43.56 bitrate=N/A speed=1.01x    frame= 3119 fps= 30 q=-1.0 size=N/A time=00:01:44.05 bitrate=N/A speed=1.01x    frame= 3134 fps= 30 q=-1.0 size=N/A time=00:01:44.57 bitrate=N/A speed=1.01x    frame= 3148 fps= 30 q=-1.0 size=N/A time=00:01:45.05 bitrate=N/A speed=1.01x    frame= 3164 fps= 30 q=-1.0 size=N/A time=00:01:45.57 bitrate=N/A speed=1.01x    frame= 3178 fps= 30 q=-1.0 size=N/A time=00:01:46.05 bitrate=N/A speed=1.01x    frame= 3194 fps= 30 q=-1.0 size=N/A time=00:01:46.57 bitrate=N/A speed=1.01x    frame= 3208 fps= 30 q=-1.0 size=N/A time=00:01:47.05 bitrate=N/A speed=1.01x    frame= 3224 fps= 30 q=-1.0 size=N/A time=00:01:47.57 bitrate=N/A speed=1.01x    frame= 3239 fps= 30 q=-1.0 size=N/A time=00:01:48.05 bitrate=N/A speed=1.01x    frame= 3254 fps= 30 q=-1.0 size=N/A time=00:01:48.57 bitrate=N/A speed=1.01x    frame= 3269 fps= 30 q=-1.0 size=N/A time=00:01:49.05 bitrate=N/A speed=1.01x    frame= 3283 fps= 30 q=-1.0 size=N/A time=00:01:49.56 bitrate=N/A speed=1.01x    frame= 3297 fps= 30 q=-1.0 size=N/A time=00:01:50.01 bitrate=N/A speed=1.01x    frame= 3313 fps= 30 q=-1.0 size=N/A time=00:01:50.56 bitrate=N/A speed=1.01x    frame= 3328 fps= 30 q=-1.0 size=N/A time=00:01:51.05 bitrate=N/A speed=1.01x    frame= 3343 fps= 30 q=-1.0 size=N/A time=00:01:51.56 bitrate=N/A speed=1.01x    frame= 3359 fps= 30 q=-1.0 size=N/A time=00:01:52.09 bitrate=N/A speed=1.01x    frame= 3374 fps= 30 q=-1.0 size=N/A time=00:01:52.57 bitrate=N/A speed=1.01x    frame= 3389 fps= 30 q=-1.0 size=N/A time=00:01:53.09 bitrate=N/A speed=1.01x    frame= 3403 fps= 30 q=-1.0 size=N/A time=00:01:53.56 bitrate=N/A speed=1.01x    frame= 3419 fps= 30 q=-1.0 size=N/A time=00:01:54.05 bitrate=N/A speed=1.01x    frame= 3434 fps= 30 q=-1.0 size=N/A time=00:01:54.57 bitrate=N/A speed=1.01x    frame= 3447 fps= 30 q=-1.0 size=N/A time=00:01:55.01 bitrate=N/A speed=1.01x    frame= 3464 fps= 30 q=-1.0 size=N/A time=00:01:55.57 bitrate=N/A speed=1.01x    frame= 3479 fps= 30 q=-1.0 size=N/A time=00:01:56.09 bitrate=N/A speed=1.01x    frame= 3493 fps= 30 q=-1.0 size=N/A time=00:01:56.56 bitrate=N/A speed=1.01x    frame= 3509 fps= 30 q=-1.0 size=N/A time=00:01:57.05 bitrate=N/A speed=1.01x    frame= 3524 fps= 30 q=-1.0 size=N/A time=00:01:57.57 bitrate=N/A speed=1.01x    frame= 3539 fps= 30 q=-1.0 size=N/A time=00:01:58.07 bitrate=N/A speed=1.01x    frame= 3554 fps= 30 q=-1.0 size=N/A time=00:01:58.57 bitrate=N/A speed=1.01x    frame= 3569 fps= 30 q=-1.0 size=N/A time=00:01:59.09 bitrate=N/A speed=1.01x    frame= 3584 fps= 30 q=-1.0 size=N/A time=00:01:59.57 bitrate=N/A speed=1.01x    frame= 3598 fps= 30 q=-1.0 size=N/A time=00:02:00.01 bitrate=N/A speed=1.01x    frame= 3614 fps= 30 q=-1.0 size=N/A time=00:02:00.57 bitrate=N/A speed=1.01x    frame= 3629 fps= 30 q=-1.0 size=N/A time=00:02:01.09 bitrate=N/A speed=1.01x    frame= 3644 fps= 30 q=-1.0 size=N/A time=00:02:01.57 bitrate=N/A speed=1.01x    frame= 3659 fps= 30 q=-1.0 size=N/A time=00:02:02.09 bitrate=N/A speed=1.01x    frame= 3674 fps= 30 q=-1.0 size=N/A time=00:02:02.57 bitrate=N/A speed=1.01x    frame= 3689 fps= 30 q=-1.0 size=N/A time=00:02:03.09 bitrate=N/A speed=1.01x    frame= 3704 fps= 30 q=-1.0 size=N/A time=00:02:03.57 bitrate=N/A speed=1.01x    frame= 3719 fps= 30 q=-1.0 size=N/A time=00:02:04.09 bitrate=N/A speed=1.01x    frame= 3734 fps= 30 q=-1.0 size=N/A time=00:02:04.57 bitrate=N/A speed=1.01x    frame= 3747 fps= 30 q=-1.0 size=N/A time=00:02:05.01 bitrate=N/A speed=1.01x    frame= 3764 fps= 30 q=-1.0 size=N/A time=00:02:05.57 bitrate=N/A speed=1.01x    frame= 3779 fps= 30 q=-1.0 size=N/A time=00:02:06.05 bitrate=N/A speed=1.01x    frame= 3794 fps= 30 q=-1.0 size=N/A time=00:02:06.57 bitrate=N/A speed=1.01x    frame= 3808 fps= 30 q=-1.0 size=N/A time=00:02:07.05 bitrate=N/A speed=1.01x    frame= 3823 fps= 30 q=-1.0 size=N/A time=00:02:07.56 bitrate=N/A speed=1.01x    frame= 3839 fps= 30 q=-1.0 size=N/A time=00:02:08.09 bitrate=N/A speed=1.01x    frame= 3854 fps= 30 q=-1.0 size=N/A time=00:02:08.57 bitrate=N/A speed=1.01x    frame= 3869 fps= 30 q=-1.0 size=N/A time=00:02:09.09 bitrate=N/A speed=1.01x    frame= 3884 fps= 30 q=-1.0 size=N/A time=00:02:09.57 bitrate=N/A speed=1.01x    frame= 3899 fps= 30 q=-1.0 size=N/A time=00:02:10.07 bitrate=N/A speed=1.01x    frame= 3914 fps= 30 q=-1.0 size=N/A time=00:02:10.57 bitrate=N/A speed=1.01x    frame= 3929 fps= 30 q=-1.0 size=N/A time=00:02:11.09 bitrate=N/A speed=1.01x    frame= 3944 fps= 30 q=-1.0 size=N/A time=00:02:11.57 bitrate=N/A speed=1.01x    frame= 3959 fps= 30 q=-1.0 size=N/A time=00:02:12.05 bitrate=N/A speed=1.01x    frame= 3974 fps= 30 q=-1.0 size=N/A time=00:02:12.57 bitrate=N/A speed=1.01x    frame= 3989 fps= 30 q=-1.0 size=N/A time=00:02:13.09 bitrate=N/A speed=1.01x    frame= 4004 fps= 30 q=-1.0 size=N/A time=00:02:13.57 bitrate=N/A speed=1.01x    frame= 4019 fps= 30 q=-1.0 size=N/A time=00:02:14.09 bitrate=N/A speed=1.01x    frame= 4034 fps= 30 q=-1.0 size=N/A time=00:02:14.57 bitrate=N/A speed=1.01x    frame= 4047 fps= 30 q=-1.0 size=N/A time=00:02:15.01 bitrate=N/A speed=1.01x    frame= 4064 fps= 30 q=-1.0 size=N/A time=00:02:15.57 bitrate=N/A speed=1.01x    frame= 4079 fps= 30 q=-1.0 size=N/A time=00:02:16.07 bitrate=N/A speed=1.01x    frame= 4094 fps= 30 q=-1.0 size=N/A time=00:02:16.57 bitrate=N/A speed=1.01x    frame= 4109 fps= 30 q=-1.0 size=N/A time=00:02:17.09 bitrate=N/A speed=1.01x    frame= 4124 fps= 30 q=-1.0 size=N/A time=00:02:17.57 bitrate=N/A speed=1.01x    frame= 4139 fps= 30 q=-1.0 size=N/A time=00:02:18.09 bitrate=N/A speed=1.01x    frame= 4154 fps= 30 q=-1.0 size=N/A time=00:02:18.57 bitrate=N/A speed=1.01x    frame= 4169 fps= 30 q=-1.0 size=N/A time=00:02:19.09 bitrate=N/A speed=1.01x    frame= 4184 fps= 30 q=-1.0 size=N/A time=00:02:19.57 bitrate=N/A speed=1.01x    frame= 4199 fps= 30 q=-1.0 size=N/A time=00:02:20.05 bitrate=N/A speed=1.01x    frame= 4214 fps= 30 q=-1.0 size=N/A time=00:02:20.57 bitrate=N/A speed=1.01x    frame= 4229 fps= 30 q=-1.0 size=N/A time=00:02:21.09 bitrate=N/A speed=1.01x    frame= 4244 fps= 30 q=-1.0 size=N/A time=00:02:21.57 bitrate=N/A speed=1.01x    frame= 4259 fps= 30 q=-1.0 size=N/A time=00:02:22.09 bitrate=N/A speed=1.01x    frame= 4274 fps= 30 q=-1.0 size=N/A time=00:02:22.57 bitrate=N/A speed=1.01x    frame= 4289 fps= 30 q=-1.0 size=N/A time=00:02:23.09 bitrate=N/A speed=1.01x    frame= 4304 fps= 30 q=-1.0 size=N/A time=00:02:23.57 bitrate=N/A speed=1.01x    frame= 4319 fps= 30 q=-1.0 size=N/A time=00:02:24.09 bitrate=N/A speed=1.01x    frame= 4334 fps= 30 q=-1.0 size=N/A time=00:02:24.57 bitrate=N/A speed=1.01x    frame= 4349 fps= 30 q=-1.0 size=N/A time=00:02:25.09 bitrate=N/A speed=1.01x    frame= 4364 fps= 30 q=-1.0 size=N/A time=00:02:25.57 bitrate=N/A speed=1.01x    frame= 4379 fps= 30 q=-1.0 size=N/A time=00:02:26.09 bitrate=N/A speed=1.01x    frame= 4394 fps= 30 q=-1.0 size=N/A time=00:02:26.57 bitrate=N/A speed=1.01x    frame= 4409 fps= 30 q=-1.0 size=N/A time=00:02:27.09 bitrate=N/A speed=1.01x    frame= 4424 fps= 30 q=-1.0 size=N/A time=00:02:27.57 bitrate=N/A speed=1.01x    frame= 4439 fps= 30 q=-1.0 size=N/A time=00:02:28.09 bitrate=N/A speed=1.01x    frame= 4454 fps= 30 q=-1.0 size=N/A time=00:02:28.57 bitrate=N/A speed=1.01x    frame= 4469 fps= 30 q=-1.0 size=N/A time=00:02:29.09 bitrate=N/A speed=1.01x    frame= 4484 fps= 30 q=-1.0 size=N/A time=00:02:29.57 bitrate=N/A speed=1.01x    frame= 4498 fps= 30 q=-1.0 size=N/A time=00:02:30.05 bitrate=N/A speed=1.01x    frame= 4514 fps= 30 q=-1.0 size=N/A time=00:02:30.57 bitrate=N/A speed=1.01x    frame= 4529 fps= 30 q=-1.0 size=N/A time=00:02:31.09 bitrate=N/A speed=1.01x    frame= 4544 fps= 30 q=-1.0 size=N/A time=00:02:31.57 bitrate=N/A speed=1.01x    frame= 4559 fps= 30 q=-1.0 size=N/A time=00:02:32.09 bitrate=N/A speed=1.01x    frame= 4574 fps= 30 q=-1.0 size=N/A time=00:02:32.57 bitrate=N/A speed=1.01x    frame= 4589 fps= 30 q=-1.0 size=N/A time=00:02:33.09 bitrate=N/A speed=1.01x    frame= 4604 fps= 30 q=-1.0 size=N/A time=00:02:33.57 bitrate=N/A speed=1.01x    frame= 4619 fps= 30 q=-1.0 size=N/A time=00:02:34.09 bitrate=N/A speed=1.01x    frame= 4634 fps= 30 q=-1.0 size=N/A time=00:02:34.60 bitrate=N/A speed=1.01x    frame= 4648 fps= 30 q=-1.0 size=N/A time=00:02:35.05 bitrate=N/A speed=1.01x    frame= 4664 fps= 30 q=-1.0 size=N/A time=00:02:35.57 bitrate=N/A speed=1.01x    frame= 4679 fps= 30 q=-1.0 size=N/A time=00:02:36.09 bitrate=N/A speed=1.01x    frame= 4694 fps= 30 q=-1.0 size=N/A time=00:02:36.57 bitrate=N/A speed=1.01x    frame= 4709 fps= 30 q=-1.0 size=N/A time=00:02:37.09 bitrate=N/A speed=1.01x    frame= 4724 fps= 30 q=-1.0 size=N/A time=00:02:37.57 bitrate=N/A speed=1.01x    frame= 4739 fps= 30 q=-1.0 size=N/A time=00:02:38.09 bitrate=N/A speed=1.01x    frame= 4754 fps= 30 q=-1.0 size=N/A time=00:02:38.60 bitrate=N/A speed=1.01x    frame= 4769 fps= 30 q=-1.0 size=N/A time=00:02:39.09 bitrate=N/A speed=1.01x    frame= 4784 fps= 30 q=-1.0 size=N/A time=00:02:39.57 bitrate=N/A speed=1.01x    frame= 4799 fps= 30 q=-1.0 size=N/A time=00:02:40.09 bitrate=N/A speed=1.01x    frame= 4814 fps= 30 q=-1.0 size=N/A time=00:02:40.57 bitrate=N/A speed=1.01x    frame= 4829 fps= 30 q=-1.0 size=N/A time=00:02:41.09 bitrate=N/A speed=1.01x    frame= 4845 fps= 30 q=-1.0 size=N/A time=00:02:41.57 bitrate=N/A speed=1.01x    frame= 4859 fps= 30 q=-1.0 size=N/A time=00:02:42.09 bitrate=N/A speed=1.01x    frame= 4874 fps= 30 q=-1.0 size=N/A time=00:02:42.57 bitrate=N/A speed=1.01x    frame= 4889 fps= 30 q=-1.0 size=N/A time=00:02:43.09 bitrate=N/A speed=1.01x    frame= 4905 fps= 30 q=-1.0 size=N/A time=00:02:43.61 bitrate=N/A speed=1.01x    frame= 4919 fps= 30 q=-1.0 size=N/A time=00:02:44.09 bitrate=N/A speed=1.01x    frame= 4935 fps= 30 q=-1.0 size=N/A time=00:02:44.57 bitrate=N/A speed=1.01x    frame= 4949 fps= 30 q=-1.0 size=N/A time=00:02:45.09 bitrate=N/A speed=1.01x    frame= 4964 fps= 30 q=-1.0 size=N/A time=00:02:45.57 bitrate=N/A speed=1.01x    frame= 4979 fps= 30 q=-1.0 size=N/A time=00:02:46.09 bitrate=N/A speed=1.01x    frame= 4994 fps= 30 q=-1.0 size=N/A time=00:02:46.57 bitrate=N/A speed=1.01x    frame= 5009 fps= 30 q=-1.0 size=N/A time=00:02:47.09 bitrate=N/A speed=1.01x    frame= 5024 fps= 30 q=-1.0 size=N/A time=00:02:47.57 bitrate=N/A speed=1.01x    frame= 5039 fps= 30 q=-1.0 size=N/A time=00:02:48.05 bitrate=N/A speed=1.01x    frame= 5054 fps= 30 q=-1.0 size=N/A time=00:02:48.57 bitrate=N/A speed=1.01x    frame= 5069 fps= 30 q=-1.0 size=N/A time=00:02:49.09 bitrate=N/A speed=1.01x    frame= 5084 fps= 30 q=-1.0 size=N/A time=00:02:49.57 bitrate=N/A speed=1.01x    frame= 5099 fps= 30 q=-1.0 size=N/A time=00:02:50.05 bitrate=N/A speed=1.01x    frame= 5114 fps= 30 q=-1.0 size=N/A time=00:02:50.60 bitrate=N/A speed=1.01x    frame= 5129 fps= 30 q=-1.0 size=N/A time=00:02:51.09 bitrate=N/A speed=1.01x    frame= 5144 fps= 30 q=-1.0 size=N/A time=00:02:51.60 bitrate=N/A speed=1.01x    frame= 5159 fps= 30 q=-1.0 size=N/A time=00:02:52.09 bitrate=N/A speed=1.01x    frame= 5174 fps= 30 q=-1.0 size=N/A time=00:02:52.60 bitrate=N/A speed=1.01x    frame= 5189 fps= 30 q=-1.0 size=N/A time=00:02:53.09 bitrate=N/A speed=1.01x    frame= 5204 fps= 30 q=-1.0 size=N/A time=00:02:53.60 bitrate=N/A speed=1.01x    frame= 5219 fps= 30 q=-1.0 size=N/A time=00:02:54.09 bitrate=N/A speed=1.01x    frame= 5234 fps= 30 q=-1.0 size=N/A time=00:02:54.60 bitrate=N/A speed=1.01x    frame= 5248 fps= 30 q=-1.0 size=N/A time=00:02:55.01 bitrate=N/A speed=1.01x    frame= 5264 fps= 30 q=-1.0 size=N/A time=00:02:55.60 bitrate=N/A speed=1.01x    frame= 5279 fps= 30 q=-1.0 size=N/A time=00:02:56.09 bitrate=N/A speed=1.01x    frame= 5294 fps= 30 q=-1.0 size=N/A time=00:02:56.60 bitrate=N/A speed=1.01x    frame= 5308 fps= 30 q=-1.0 size=N/A time=00:02:57.05 bitrate=N/A speed=1.01x    frame= 5324 fps= 30 q=-1.0 size=N/A time=00:02:57.60 bitrate=N/A speed=1.01x    frame= 5339 fps= 30 q=-1.0 size=N/A time=00:02:58.09 bitrate=N/A speed=1.01x    frame= 5354 fps= 30 q=-1.0 size=N/A time=00:02:58.60 bitrate=N/A speed=1.01x    frame= 5369 fps= 30 q=-1.0 size=N/A time=00:02:59.09 bitrate=N/A speed=1.01x    frame= 5384 fps= 30 q=-1.0 size=N/A time=00:02:59.57 bitrate=N/A speed=1.01x    frame= 5390 fps= 30 q=-1.0 size=N/A time=00:02:59.77 bitrate=N/A speed=   1x    frame= 5414 fps= 30 q=-1.0 size=N/A time=00:03:00.59 bitrate=N/A speed=1.01x    frame= 5427 fps= 30 q=-1.0 size=N/A time=00:03:01.01 bitrate=N/A speed=1.01x    frame= 5445 fps= 30 q=-1.0 size=N/A time=00:03:01.61 bitrate=N/A speed=1.01x    frame= 5459 fps= 30 q=-1.0 size=N/A time=00:03:02.09 bitrate=N/A speed=1.01x    frame= 5475 fps= 30 q=-1.0 size=N/A time=00:03:02.61 bitrate=N/A speed=1.01x    frame= 5490 fps= 30 q=-1.0 size=N/A time=00:03:03.09 bitrate=N/A speed=1.01x    frame= 5504 fps= 30 q=-1.0 size=N/A time=00:03:03.60 bitrate=N/A speed=1.01x    frame= 5507 fps= 30 q=-1.0 size=N/A time=00:03:03.69 bitrate=N/A speed=   1x    frame= 5535 fps= 30 q=-1.0 size=N/A time=00:03:04.61 bitrate=N/A speed=1.01x    frame= 5549 fps= 30 q=-1.0 size=N/A time=00:03:05.09 bitrate=N/A speed=1.01x    frame= 5565 fps= 30 q=-1.0 size=N/A time=00:03:05.61 bitrate=N/A speed=1.01x    frame= 5580 fps= 30 q=-1.0 size=N/A time=00:03:06.09 bitrate=N/A speed=1.01x    frame= 5594 fps= 30 q=-1.0 size=N/A time=00:03:06.60 bitrate=N/A speed=1.01x    frame= 5609 fps= 30 q=-1.0 size=N/A time=00:03:07.09 bitrate=N/A speed=1.01x    frame= 5625 fps= 30 q=-1.0 size=N/A time=00:03:07.61 bitrate=N/A speed=1.01x    frame= 5639 fps= 30 q=-1.0 size=N/A time=00:03:08.09 bitrate=N/A speed=1.01x    frame= 5655 fps= 30 q=-1.0 size=N/A time=00:03:08.61 bitrate=N/A speed=1.01x    frame= 5669 fps= 30 q=-1.0 size=N/A time=00:03:09.09 bitrate=N/A speed=1.01x    frame= 5685 fps= 30 q=-1.0 size=N/A time=00:03:09.61 bitrate=N/A speed=1.01x    frame= 5699 fps= 30 q=-1.0 size=N/A time=00:03:10.09 bitrate=N/A speed=1.01x    frame= 5714 fps= 30 q=-1.0 size=N/A time=00:03:10.60 bitrate=N/A speed=1.01x    frame= 5729 fps= 30 q=-1.0 size=N/A time=00:03:11.09 bitrate=N/A speed=1.01x    frame= 5745 fps= 30 q=-1.0 size=N/A time=00:03:11.61 bitrate=N/A speed=1.01x    frame= 5759 fps= 30 q=-1.0 size=N/A time=00:03:12.09 bitrate=N/A speed=1.01x    frame= 5775 fps= 30 q=-1.0 size=N/A time=00:03:12.61 bitrate=N/A speed=1.01x    frame= 5790 fps= 30 q=-1.0 size=N/A time=00:03:13.09 bitrate=N/A speed=1.01x    frame= 5804 fps= 30 q=-1.0 size=N/A time=00:03:13.60 bitrate=N/A speed=1.01x    frame= 5820 fps= 30 q=-1.0 size=N/A time=00:03:14.09 bitrate=N/A speed=1.01x    frame= 5835 fps= 30 q=-1.0 size=N/A time=00:03:14.61 bitrate=N/A speed=1.01x    frame= 5849 fps= 30 q=-1.0 size=N/A time=00:03:15.09 bitrate=N/A speed=1.01x    frame= 5865 fps= 30 q=-1.0 size=N/A time=00:03:15.61 bitrate=N/A speed=1.01x    frame= 5879 fps= 30 q=-1.0 size=N/A time=00:03:16.09 bitrate=N/A speed=1.01x    frame= 5894 fps= 30 q=-1.0 size=N/A time=00:03:16.60 bitrate=N/A speed=1.01x    frame= 5909 fps= 30 q=-1.0 size=N/A time=00:03:17.09 bitrate=N/A speed=1.01x    frame= 5924 fps= 30 q=-1.0 size=N/A time=00:03:17.60 bitrate=N/A speed=1.01x    frame= 5940 fps= 30 q=-1.0 size=N/A time=00:03:18.09 bitrate=N/A speed=1.01x    frame= 5955 fps= 30 q=-1.0 size=N/A time=00:03:18.61 bitrate=N/A speed=1.01x    frame= 5969 fps= 30 q=-1.0 size=N/A time=00:03:19.09 bitrate=N/A speed=1.01x    frame= 5985 fps= 30 q=-1.0 size=N/A time=00:03:19.61 bitrate=N/A speed=1.01x    frame= 5999 fps= 30 q=-1.0 size=N/A time=00:03:20.09 bitrate=N/A speed=1.01x    frame= 6014 fps= 30 q=-1.0 size=N/A time=00:03:20.60 bitrate=N/A speed=1.01x    frame= 6030 fps= 30 q=-1.0 size=N/A time=00:03:21.09 bitrate=N/A speed=1.01x    frame= 6044 fps= 30 q=-1.0 size=N/A time=00:03:21.60 bitrate=N/A speed=1.01x    frame= 6060 fps= 30 q=-1.0 size=N/A time=00:03:22.09 bitrate=N/A speed=1.01x    frame= 6075 fps= 30 q=-1.0 size=N/A time=00:03:22.61 bitrate=N/A speed=1.01x    [in#0/rtsp @ 0x56496cc6aec0] Error during demuxing: Immediate exit requested
[out#0/rtsp @ 0x56496cca2400] video:46578KiB audio:1717KiB subtitle:0KiB other streams:0KiB global headers:0KiB muxing overhead: unknown
frame= 6079 fps= 30 q=-1.0 Lsize=N/A time=00:03:22.76 bitrate=N/A speed=1.01x    
Exiting normally, received signal 15.
